<svg id="visual" viewBox="0 0 900 600" width="900" height="600" xmlns="http://www.w3.org/2000/svg" xmlns:xlink="http://www.w3.org/1999/xlink" version="1.1"><rect x="0" y="0" width="900" height="600" fill="#001220"></rect><path d="M0 426L21.5 422.2C43 418.3 86 410.7 128.8 412.3C171.7 414 214.3 425 257.2 431.2C300 437.3 343 438.7 385.8 429.2C428.7 419.7 471.3 399.3 514.2 387.7C557 376 600 373 642.8 369.7C685.7 366.3 728.3 362.7 771.2 367.5C814 372.3 857 385.7 878.5 392.3L900 399L900 601L878.5 601C857 601 814 601 771.2 601C728.3 601 685.7 601 642.8 601C600 601 557 601 514.2 601C471.3 601 428.7 601 385.8 601C343 601 300 601 257.2 601C214.3 601 171.7 601 128.8 601C86 601 43 601 21.5 601L0 601Z" fill="#c62368"></path><path d="M0 413L21.5 414C43 415 86 417 128.8 420.5C171.7 424 214.3 429 257.2 433.5C300 438 343 442 385.8 440.7C428.7 439.3 471.3 432.7 514.2 423.7C557 414.7 600 403.3 642.8 405.7C685.7 408 728.3 424 771.2 428.2C814 432.3 857 424.7 878.5 420.8L900 417L900 601L878.5 601C857 601 814 601 771.2 601C728.3 601 685.7 601 642.8 601C600 601 557 601 514.2 601C471.3 601 428.7 601 385.8 601C343 601 300 601 257.2 601C214.3 601 171.7 601 128.8 601C86 601 43 601 21.5 601L0 601Z" fill="#982870"></path><path d="M0 440L21.5 438.5C43 437 86 434 128.8 432.2C171.7 430.3 214.3 429.7 257.2 439.7C300 449.7 343 470.3 385.8 476.5C428.7 482.7 471.3 474.3 514.2 468.5C557 462.7 600 459.3 642.8 456.2C685.7 453 728.3 450 771.2 452.7C814 455.3 857 463.7 878.5 467.8L900 472L900 601L878.5 601C857 601 814 601 771.2 601C728.3 601 685.7 601 642.8 601C600 601 557 601 514.2 601C471.3 601 428.7 601 385.8 601C343 601 300 601 257.2 601C214.3 601 171.7 601 128.8 601C86 601 43 601 21.5 601L0 601Z" fill="#672c6b"></path><path d="M0 505L21.5 507.5C43 510 86 515 128.8 512.2C171.7 509.3 214.3 498.7 257.2 491C300 483.3 343 478.7 385.8 474.5C428.7 470.3 471.3 466.7 514.2 474.2C557 481.7 600 500.3 642.8 510C685.7 519.7 728.3 520.3 771.2 516.7C814 513 857 505 878.5 501L900 497L900 601L878.5 601C857 601 814 601 771.2 601C728.3 601 685.7 601 642.8 601C600 601 557 601 514.2 601C471.3 601 428.7 601 385.8 601C343 601 300 601 257.2 601C214.3 601 171.7 601 128.8 601C86 601 43 601 21.5 601L0 601Z" fill="#39295a"></path><path d="M0 541L21.5 541.2C43 541.3 86 541.7 128.8 535.3C171.7 529 214.3 516 257.2 514C300 512 343 521 385.8 521.5C428.7 522 471.3 514 514.2 516.8C557 519.7 600 533.3 642.8 538.2C685.7 543 728.3 539 771.2 537C814 535 857 535 878.5 535L900 535L900 601L878.5 601C857 601 814 601 771.2 601C728.3 601 685.7 601 642.8 601C600 601 557 601 514.2 601C471.3 601 428.7 601 385.8 601C343 601 300 601 257.2 601C214.3 601 171.7 601 128.8 601C86 601 43 601 21.5 601L0 601Z" fill="#141f40"></path><path d="M0 575L21.5 572.7C43 570.3 86 565.7 128.8 565.2C171.7 564.7 214.3 568.3 257.2 567C300 565.7 343 559.3 385.8 557.8C428.7 556.3 471.3 559.7 514.2 562.5C557 565.3 600 567.7 642.8 566.3C685.7 565 728.3 560 771.2 555.7C814 551.3 857 547.7 878.5 545.8L900 544L900 601L878.5 601C857 601 814 601 771.2 601C728.3 601 685.7 601 642.8 601C600 601 557 601 514.2 601C471.3 601 428.7 601 385.8 601C343 601 300 601 257.2 601C214.3 601 171.7 601 128.8 601C86 601 43 601 21.5 601L0 601Z" fill="#001122"></path></svg>