<svg id="visual" viewBox="0 0 900 600" width="900" height="600" xmlns="http://www.w3.org/2000/svg" xmlns:xlink="http://www.w3.org/1999/xlink" version="1.1"><g stroke-width="1" stroke-linejoin="bevel"><path d="M427 284L396 252L369 265Z" fill="#9639ab" stroke="#bd6a1e"></path><path d="M396 252L335 264L369 265Z" fill="#a82fa9" stroke="#bd6a1e"></path><path d="M346 358L457 344L427 284Z" fill="#9639ab" stroke="#bd6a1e"></path><path d="M427 284L459 232L396 252Z" fill="#134980" stroke="#bd6a1e"></path><path d="M325 131L302 246L335 264Z" fill="#4f4aa0" stroke="#bd6a1e"></path><path d="M346 358L427 284L369 265Z" fill="#8440aa" stroke="#bd6a1e"></path><path d="M427 284L505 266L459 232Z" fill="#4f4aa0" stroke="#bd6a1e"></path><path d="M335 264L346 358L369 265Z" fill="#3e4b9a" stroke="#bd6a1e"></path><path d="M325 131L335 264L396 252Z" fill="#a82fa9" stroke="#bd6a1e"></path><path d="M335 264L292 369L346 358Z" fill="#204a89" stroke="#bd6a1e"></path><path d="M457 344L505 266L427 284Z" fill="#9639ab" stroke="#bd6a1e"></path><path d="M302 246L292 369L335 264Z" fill="#204a89" stroke="#bd6a1e"></path><path d="M564 392L541 342L457 344Z" fill="#204a89" stroke="#bd6a1e"></path><path d="M481 155L409 130L459 232Z" fill="#0a4776" stroke="#bd6a1e"></path><path d="M459 232L409 130L396 252Z" fill="#7245a9" stroke="#bd6a1e"></path><path d="M557 213L481 155L459 232Z" fill="#9639ab" stroke="#bd6a1e"></path><path d="M418 453L457 344L346 358Z" fill="#6048a5" stroke="#bd6a1e"></path><path d="M457 344L541 342L505 266Z" fill="#6048a5" stroke="#bd6a1e"></path><path d="M505 266L557 213L459 232Z" fill="#8440aa" stroke="#bd6a1e"></path><path d="M409 130L325 131L396 252Z" fill="#9639ab" stroke="#bd6a1e"></path><path d="M328 443L418 453L346 358Z" fill="#4f4aa0" stroke="#bd6a1e"></path><path d="M292 369L328 443L346 358Z" fill="#204a89" stroke="#bd6a1e"></path><path d="M613 241L557 213L505 266Z" fill="#134980" stroke="#bd6a1e"></path><path d="M227 121L210 253L302 246Z" fill="#0a4776" stroke="#bd6a1e"></path><path d="M302 246L216 356L292 369Z" fill="#134980" stroke="#bd6a1e"></path><path d="M292 369L223 473L328 443Z" fill="#0a4776" stroke="#bd6a1e"></path><path d="M328 443L349 468L418 453Z" fill="#7245a9" stroke="#bd6a1e"></path><path d="M194 313L216 356L302 246Z" fill="#8440aa" stroke="#bd6a1e"></path><path d="M304 515L349 510L349 468Z" fill="#7245a9" stroke="#bd6a1e"></path><path d="M517 468L564 392L457 344Z" fill="#8440aa" stroke="#bd6a1e"></path><path d="M541 342L610 308L505 266Z" fill="#2e4b92" stroke="#bd6a1e"></path><path d="M210 253L194 313L302 246Z" fill="#a82fa9" stroke="#bd6a1e"></path><path d="M569 153L556 153L557 213Z" fill="#204a89" stroke="#bd6a1e"></path><path d="M557 213L556 153L481 155Z" fill="#4f4aa0" stroke="#bd6a1e"></path><path d="M474 52L361 57L409 130Z" fill="#134980" stroke="#bd6a1e"></path><path d="M227 121L185 246L210 253Z" fill="#2e4b92" stroke="#bd6a1e"></path><path d="M210 253L185 246L194 313Z" fill="#134980" stroke="#bd6a1e"></path><path d="M564 392L610 308L541 342Z" fill="#6048a5" stroke="#bd6a1e"></path><path d="M613 241L569 153L557 213Z" fill="#3e4b9a" stroke="#bd6a1e"></path><path d="M361 57L325 131L409 130Z" fill="#a82fa9" stroke="#bd6a1e"></path><path d="M462 501L517 468L418 453Z" fill="#2e4b92" stroke="#bd6a1e"></path><path d="M418 453L517 468L457 344Z" fill="#0a4776" stroke="#bd6a1e"></path><path d="M610 308L613 241L505 266Z" fill="#6048a5" stroke="#bd6a1e"></path><path d="M361 57L311 75L325 131Z" fill="#4f4aa0" stroke="#bd6a1e"></path><path d="M325 131L227 121L302 246Z" fill="#6048a5" stroke="#bd6a1e"></path><path d="M409 130L481 155L474 52Z" fill="#8440aa" stroke="#bd6a1e"></path><path d="M349 510L462 501L418 453Z" fill="#0a4776" stroke="#bd6a1e"></path><path d="M131 320L178 353L194 313Z" fill="#4f4aa0" stroke="#bd6a1e"></path><path d="M194 313L178 353L216 356Z" fill="#204a89" stroke="#bd6a1e"></path><path d="M223 473L304 515L328 443Z" fill="#6048a5" stroke="#bd6a1e"></path><path d="M474 52L481 155L557 98Z" fill="#3e4b9a" stroke="#bd6a1e"></path><path d="M304 515L349 468L328 443Z" fill="#134980" stroke="#bd6a1e"></path><path d="M349 468L349 510L418 453Z" fill="#9639ab" stroke="#bd6a1e"></path><path d="M311 75L227 121L325 131Z" fill="#204a89" stroke="#bd6a1e"></path><path d="M570 531L494 503L531 600Z" fill="#6048a5" stroke="#bd6a1e"></path><path d="M462 501L494 503L517 468Z" fill="#134980" stroke="#bd6a1e"></path><path d="M557 98L481 155L556 153Z" fill="#134980" stroke="#bd6a1e"></path><path d="M571 85L557 98L569 153Z" fill="#0a4776" stroke="#bd6a1e"></path><path d="M569 153L557 98L556 153Z" fill="#a82fa9" stroke="#bd6a1e"></path><path d="M223 473L292 369L216 356Z" fill="#7245a9" stroke="#bd6a1e"></path><path d="M431 600L494 503L462 501Z" fill="#6048a5" stroke="#bd6a1e"></path><path d="M517 468L592 437L564 392Z" fill="#7245a9" stroke="#bd6a1e"></path><path d="M564 392L640 366L610 308Z" fill="#204a89" stroke="#bd6a1e"></path><path d="M570 531L592 437L517 468Z" fill="#7245a9" stroke="#bd6a1e"></path><path d="M180 452L223 473L216 356Z" fill="#7245a9" stroke="#bd6a1e"></path><path d="M592 437L640 366L564 392Z" fill="#6048a5" stroke="#bd6a1e"></path><path d="M610 308L704 295L613 241Z" fill="#134980" stroke="#bd6a1e"></path><path d="M669 81L571 85L569 153Z" fill="#a82fa9" stroke="#bd6a1e"></path><path d="M557 98L532 0L474 52Z" fill="#4f4aa0" stroke="#bd6a1e"></path><path d="M185 246L131 320L194 313Z" fill="#4f4aa0" stroke="#bd6a1e"></path><path d="M178 353L180 452L216 356Z" fill="#8440aa" stroke="#bd6a1e"></path><path d="M96 196L131 320L185 246Z" fill="#3e4b9a" stroke="#bd6a1e"></path><path d="M199 82L180 117L227 121Z" fill="#8440aa" stroke="#bd6a1e"></path><path d="M227 121L180 117L185 246Z" fill="#8440aa" stroke="#bd6a1e"></path><path d="M199 82L227 121L311 75Z" fill="#204a89" stroke="#bd6a1e"></path><path d="M82 404L180 452L178 353Z" fill="#9639ab" stroke="#bd6a1e"></path><path d="M325 600L349 510L304 515Z" fill="#0a4776" stroke="#bd6a1e"></path><path d="M304 0L199 82L311 75Z" fill="#3e4b9a" stroke="#bd6a1e"></path><path d="M418 0L383 0L361 57Z" fill="#2e4b92" stroke="#bd6a1e"></path><path d="M361 57L304 0L311 75Z" fill="#4f4aa0" stroke="#bd6a1e"></path><path d="M418 0L361 57L474 52Z" fill="#7245a9" stroke="#bd6a1e"></path><path d="M532 0L418 0L474 52Z" fill="#0a4776" stroke="#bd6a1e"></path><path d="M383 0L304 0L361 57Z" fill="#4f4aa0" stroke="#bd6a1e"></path><path d="M390 600L462 501L349 510Z" fill="#3e4b9a" stroke="#bd6a1e"></path><path d="M494 503L570 531L517 468Z" fill="#a82fa9" stroke="#bd6a1e"></path><path d="M592 437L664 443L640 366Z" fill="#8440aa" stroke="#bd6a1e"></path><path d="M640 366L704 295L610 308Z" fill="#0a4776" stroke="#bd6a1e"></path><path d="M613 241L692 169L569 153Z" fill="#204a89" stroke="#bd6a1e"></path><path d="M756 348L704 295L640 366Z" fill="#a82fa9" stroke="#bd6a1e"></path><path d="M704 295L694 201L613 241Z" fill="#134980" stroke="#bd6a1e"></path><path d="M72 163L96 196L180 117Z" fill="#9639ab" stroke="#bd6a1e"></path><path d="M180 117L96 196L185 246Z" fill="#0a4776" stroke="#bd6a1e"></path><path d="M648 534L664 443L592 437Z" fill="#0a4776" stroke="#bd6a1e"></path><path d="M577 0L532 0L571 85Z" fill="#134980" stroke="#bd6a1e"></path><path d="M571 85L532 0L557 98Z" fill="#3e4b9a" stroke="#bd6a1e"></path><path d="M216 547L304 515L223 473Z" fill="#3e4b9a" stroke="#bd6a1e"></path><path d="M325 600L390 600L349 510Z" fill="#204a89" stroke="#bd6a1e"></path><path d="M390 600L431 600L462 501Z" fill="#7245a9" stroke="#bd6a1e"></path><path d="M180 452L216 547L223 473Z" fill="#134980" stroke="#bd6a1e"></path><path d="M96 196L80 331L131 320Z" fill="#a82fa9" stroke="#bd6a1e"></path><path d="M131 320L82 404L178 353Z" fill="#0a4776" stroke="#bd6a1e"></path><path d="M180 452L125 558L216 547Z" fill="#134980" stroke="#bd6a1e"></path><path d="M785 160L692 169L694 201Z" fill="#0a4776" stroke="#bd6a1e"></path><path d="M694 201L692 169L613 241Z" fill="#8440aa" stroke="#bd6a1e"></path><path d="M238 600L325 600L304 515Z" fill="#0a4776" stroke="#bd6a1e"></path><path d="M80 331L82 404L131 320Z" fill="#3e4b9a" stroke="#bd6a1e"></path><path d="M669 81L577 0L571 85Z" fill="#2e4b92" stroke="#bd6a1e"></path><path d="M692 169L669 81L569 153Z" fill="#134980" stroke="#bd6a1e"></path><path d="M189 0L137 60L199 82Z" fill="#7245a9" stroke="#bd6a1e"></path><path d="M199 82L137 60L180 117Z" fill="#204a89" stroke="#bd6a1e"></path><path d="M770 323L736 252L704 295Z" fill="#3e4b9a" stroke="#bd6a1e"></path><path d="M704 295L736 252L694 201Z" fill="#a82fa9" stroke="#bd6a1e"></path><path d="M692 169L720 79L669 81Z" fill="#7245a9" stroke="#bd6a1e"></path><path d="M431 600L531 600L494 503Z" fill="#204a89" stroke="#bd6a1e"></path><path d="M570 531L648 534L592 437Z" fill="#4f4aa0" stroke="#bd6a1e"></path><path d="M137 60L72 163L180 117Z" fill="#7245a9" stroke="#bd6a1e"></path><path d="M96 196L0 282L80 331Z" fill="#3e4b9a" stroke="#bd6a1e"></path><path d="M0 451L55 470L82 404Z" fill="#4f4aa0" stroke="#bd6a1e"></path><path d="M304 0L189 0L199 82Z" fill="#7245a9" stroke="#bd6a1e"></path><path d="M165 600L238 600L216 547Z" fill="#a82fa9" stroke="#bd6a1e"></path><path d="M216 547L238 600L304 515Z" fill="#204a89" stroke="#bd6a1e"></path><path d="M623 600L648 534L570 531Z" fill="#8440aa" stroke="#bd6a1e"></path><path d="M664 443L756 348L640 366Z" fill="#8440aa" stroke="#bd6a1e"></path><path d="M729 479L756 348L664 443Z" fill="#0a4776" stroke="#bd6a1e"></path><path d="M189 0L154 0L137 60Z" fill="#6048a5" stroke="#bd6a1e"></path><path d="M137 60L58 84L72 163Z" fill="#7245a9" stroke="#bd6a1e"></path><path d="M756 348L770 323L704 295Z" fill="#9639ab" stroke="#bd6a1e"></path><path d="M785 160L720 79L692 169Z" fill="#9639ab" stroke="#bd6a1e"></path><path d="M793 214L694 201L736 252Z" fill="#a82fa9" stroke="#bd6a1e"></path><path d="M669 81L680 0L577 0Z" fill="#7245a9" stroke="#bd6a1e"></path><path d="M55 470L125 558L180 452Z" fill="#2e4b92" stroke="#bd6a1e"></path><path d="M648 534L729 479L664 443Z" fill="#134980" stroke="#bd6a1e"></path><path d="M756 348L812 329L770 323Z" fill="#134980" stroke="#bd6a1e"></path><path d="M0 354L82 404L80 331Z" fill="#4f4aa0" stroke="#bd6a1e"></path><path d="M82 404L55 470L180 452Z" fill="#7245a9" stroke="#bd6a1e"></path><path d="M531 600L623 600L570 531Z" fill="#3e4b9a" stroke="#bd6a1e"></path><path d="M648 534L762 541L729 479Z" fill="#6048a5" stroke="#bd6a1e"></path><path d="M125 558L165 600L216 547Z" fill="#4f4aa0" stroke="#bd6a1e"></path><path d="M53 0L58 84L137 60Z" fill="#6048a5" stroke="#bd6a1e"></path><path d="M0 205L0 282L96 196Z" fill="#204a89" stroke="#bd6a1e"></path><path d="M0 205L96 196L72 163Z" fill="#a82fa9" stroke="#bd6a1e"></path><path d="M0 282L0 354L80 331Z" fill="#0a4776" stroke="#bd6a1e"></path><path d="M720 79L680 0L669 81Z" fill="#9639ab" stroke="#bd6a1e"></path><path d="M0 131L0 205L72 163Z" fill="#8440aa" stroke="#bd6a1e"></path><path d="M770 323L793 214L736 252Z" fill="#204a89" stroke="#bd6a1e"></path><path d="M720 79L748 0L680 0Z" fill="#2e4b92" stroke="#bd6a1e"></path><path d="M793 214L785 160L694 201Z" fill="#7245a9" stroke="#bd6a1e"></path><path d="M623 600L661 600L648 534Z" fill="#134980" stroke="#bd6a1e"></path><path d="M770 323L812 329L793 214Z" fill="#a82fa9" stroke="#bd6a1e"></path><path d="M793 214L846 149L785 160Z" fill="#134980" stroke="#bd6a1e"></path><path d="M828 403L812 329L756 348Z" fill="#134980" stroke="#bd6a1e"></path><path d="M58 84L0 131L72 163Z" fill="#0a4776" stroke="#bd6a1e"></path><path d="M0 41L0 131L58 84Z" fill="#9639ab" stroke="#bd6a1e"></path><path d="M55 470L70 556L125 558Z" fill="#a82fa9" stroke="#bd6a1e"></path><path d="M125 558L79 600L165 600Z" fill="#6048a5" stroke="#bd6a1e"></path><path d="M0 497L70 556L55 470Z" fill="#6048a5" stroke="#bd6a1e"></path><path d="M0 354L0 451L82 404Z" fill="#a82fa9" stroke="#bd6a1e"></path><path d="M154 0L53 0L137 60Z" fill="#134980" stroke="#bd6a1e"></path><path d="M0 600L79 600L70 556Z" fill="#9639ab" stroke="#bd6a1e"></path><path d="M70 556L79 600L125 558Z" fill="#204a89" stroke="#bd6a1e"></path><path d="M746 600L762 541L648 534Z" fill="#6048a5" stroke="#bd6a1e"></path><path d="M729 479L828 403L756 348Z" fill="#6048a5" stroke="#bd6a1e"></path><path d="M0 451L0 497L55 470Z" fill="#3e4b9a" stroke="#bd6a1e"></path><path d="M853 440L828 403L729 479Z" fill="#6048a5" stroke="#bd6a1e"></path><path d="M900 235L846 149L793 214Z" fill="#204a89" stroke="#bd6a1e"></path><path d="M809 0L748 0L720 79Z" fill="#134980" stroke="#bd6a1e"></path><path d="M53 0L0 41L58 84Z" fill="#4f4aa0" stroke="#bd6a1e"></path><path d="M900 235L793 214L812 329Z" fill="#2e4b92" stroke="#bd6a1e"></path><path d="M785 160L834 100L720 79Z" fill="#4f4aa0" stroke="#bd6a1e"></path><path d="M844 514L853 440L729 479Z" fill="#3e4b9a" stroke="#bd6a1e"></path><path d="M661 600L746 600L648 534Z" fill="#0a4776" stroke="#bd6a1e"></path><path d="M846 149L834 100L785 160Z" fill="#2e4b92" stroke="#bd6a1e"></path><path d="M844 514L729 479L762 541Z" fill="#8440aa" stroke="#bd6a1e"></path><path d="M900 370L900 297L812 329Z" fill="#2e4b92" stroke="#bd6a1e"></path><path d="M53 0L0 0L0 41Z" fill="#4f4aa0" stroke="#bd6a1e"></path><path d="M834 100L809 0L720 79Z" fill="#0a4776" stroke="#bd6a1e"></path><path d="M845 600L844 514L762 541Z" fill="#8440aa" stroke="#bd6a1e"></path><path d="M900 370L828 403L900 414Z" fill="#134980" stroke="#bd6a1e"></path><path d="M900 370L812 329L828 403Z" fill="#0a4776" stroke="#bd6a1e"></path><path d="M846 149L900 137L834 100Z" fill="#3e4b9a" stroke="#bd6a1e"></path><path d="M834 100L900 82L809 0Z" fill="#134980" stroke="#bd6a1e"></path><path d="M0 497L0 600L70 556Z" fill="#8440aa" stroke="#bd6a1e"></path><path d="M900 297L900 235L812 329Z" fill="#8440aa" stroke="#bd6a1e"></path><path d="M900 414L828 403L853 440Z" fill="#6048a5" stroke="#bd6a1e"></path><path d="M900 537L900 414L853 440Z" fill="#8440aa" stroke="#bd6a1e"></path><path d="M900 235L900 137L846 149Z" fill="#7245a9" stroke="#bd6a1e"></path><path d="M900 137L900 82L834 100Z" fill="#9639ab" stroke="#bd6a1e"></path><path d="M746 600L845 600L762 541Z" fill="#a82fa9" stroke="#bd6a1e"></path><path d="M844 514L900 537L853 440Z" fill="#4f4aa0" stroke="#bd6a1e"></path><path d="M845 600L900 537L844 514Z" fill="#6048a5" stroke="#bd6a1e"></path><path d="M900 82L900 0L809 0Z" fill="#9639ab" stroke="#bd6a1e"></path><path d="M845 600L900 600L900 537Z" fill="#134980" stroke="#bd6a1e"></path></g></svg>