<svg id="visual" viewBox="0 0 900 600" width="900" height="600" xmlns="http://www.w3.org/2000/svg" xmlns:xlink="http://www.w3.org/1999/xlink" version="1.1"><rect x="0" y="0" width="900" height="600" fill="#f3f3f4"></rect><path d="M0 440L21.5 443.8C43 447.7 86 455.3 128.8 454.3C171.7 453.3 214.3 443.7 257.2 438.2C300 432.7 343 431.3 385.8 433C428.7 434.7 471.3 439.3 514.2 446.8C557 454.3 600 464.7 642.8 463.2C685.7 461.7 728.3 448.3 771.2 437.8C814 427.3 857 419.7 878.5 415.8L900 412L900 601L878.5 601C857 601 814 601 771.2 601C728.3 601 685.7 601 642.8 601C600 601 557 601 514.2 601C471.3 601 428.7 601 385.8 601C343 601 300 601 257.2 601C214.3 601 171.7 601 128.8 601C86 601 43 601 21.5 601L0 601Z" fill="#4facf7"></path><path d="M0 465L21.5 461.2C43 457.3 86 449.7 128.8 455.3C171.7 461 214.3 480 257.2 479C300 478 343 457 385.8 448.3C428.7 439.7 471.3 443.3 514.2 452.3C557 461.3 600 475.7 642.8 482.8C685.7 490 728.3 490 771.2 481.8C814 473.7 857 457.3 878.5 449.2L900 441L900 601L878.5 601C857 601 814 601 771.2 601C728.3 601 685.7 601 642.8 601C600 601 557 601 514.2 601C471.3 601 428.7 601 385.8 601C343 601 300 601 257.2 601C214.3 601 171.7 601 128.8 601C86 601 43 601 21.5 601L0 601Z" fill="#2b9dfc"></path><path d="M0 477L21.5 484.7C43 492.3 86 507.7 128.8 515.8C171.7 524 214.3 525 257.2 517.7C300 510.3 343 494.7 385.8 490.5C428.7 486.3 471.3 493.7 514.2 500.3C557 507 600 513 642.8 510.5C685.7 508 728.3 497 771.2 497.8C814 498.7 857 511.3 878.5 517.7L900 524L900 601L878.5 601C857 601 814 601 771.2 601C728.3 601 685.7 601 642.8 601C600 601 557 601 514.2 601C471.3 601 428.7 601 385.8 601C343 601 300 601 257.2 601C214.3 601 171.7 601 128.8 601C86 601 43 601 21.5 601L0 601Z" fill="#008cff"></path><path d="M0 522L21.5 522.5C43 523 86 524 128.8 521C171.7 518 214.3 511 257.2 515.8C300 520.7 343 537.3 385.8 543.5C428.7 549.7 471.3 545.3 514.2 541.8C557 538.3 600 535.7 642.8 535C685.7 534.3 728.3 535.7 771.2 535.5C814 535.3 857 533.7 878.5 532.8L900 532L900 601L878.5 601C857 601 814 601 771.2 601C728.3 601 685.7 601 642.8 601C600 601 557 601 514.2 601C471.3 601 428.7 601 385.8 601C343 601 300 601 257.2 601C214.3 601 171.7 601 128.8 601C86 601 43 601 21.5 601L0 601Z" fill="#007aff"></path><path d="M0 564L21.5 565.8C43 567.7 86 571.3 128.8 573.7C171.7 576 214.3 577 257.2 572.7C300 568.3 343 558.7 385.8 554.8C428.7 551 471.3 553 514.2 552.7C557 552.3 600 549.7 642.8 552.8C685.7 556 728.3 565 771.2 568.8C814 572.7 857 571.3 878.5 570.7L900 570L900 601L878.5 601C857 601 814 601 771.2 601C728.3 601 685.7 601 642.8 601C600 601 557 601 514.2 601C471.3 601 428.7 601 385.8 601C343 601 300 601 257.2 601C214.3 601 171.7 601 128.8 601C86 601 43 601 21.5 601L0 601Z" fill="#0066ff"></path></svg>