<svg id="visual" viewBox="0 0 900 600" width="900" height="600" xmlns="http://www.w3.org/2000/svg" xmlns:xlink="http://www.w3.org/1999/xlink" version="1.1"><rect x="0" y="0" width="900" height="600" fill="#1dc7d0"></rect><path d="M0 436L64 446L129 417L193 366L257 394L321 327L386 447L450 431L514 371L579 431L643 411L707 326L771 416L836 355L900 410L900 601L836 601L771 601L707 601L643 601L579 601L514 601L450 601L386 601L321 601L257 601L193 601L129 601L64 601L0 601Z" fill="#086c10"></path><path d="M0 368L64 371L129 440L193 474L257 319L321 386L386 465L450 432L514 465L579 438L643 362L707 465L771 376L836 403L900 452L900 601L836 601L771 601L707 601L643 601L579 601L514 601L450 601L386 601L321 601L257 601L193 601L129 601L64 601L0 601Z" fill="#088112"></path><path d="M0 485L64 363L129 361L193 428L257 414L321 398L386 467L450 428L514 394L579 416L643 495L707 477L771 363L836 386L900 418L900 601L836 601L771 601L707 601L643 601L579 601L514 601L450 601L386 601L321 601L257 601L193 601L129 601L64 601L0 601Z" fill="#099713"></path><path d="M0 499L64 487L129 482L193 492L257 437L321 477L386 512L450 411L514 512L579 465L643 475L707 424L771 484L836 414L900 509L900 601L836 601L771 601L707 601L643 601L579 601L514 601L450 601L386 601L321 601L257 601L193 601L129 601L64 601L0 601Z" fill="#0bae13"></path><path d="M0 460L64 495L129 524L193 460L257 448L321 460L386 513L450 458L514 469L579 504L643 539L707 511L771 482L836 499L900 513L900 601L836 601L771 601L707 601L643 601L579 601L514 601L450 601L386 601L321 601L257 601L193 601L129 601L64 601L0 601Z" fill="#0fc512"></path><path d="M0 518L64 533L129 545L193 482L257 562L321 506L386 534L450 492L514 536L579 525L643 488L707 551L771 537L836 530L900 490L900 601L836 601L771 601L707 601L643 601L579 601L514 601L450 601L386 601L321 601L257 601L193 601L129 601L64 601L0 601Z" fill="#14dd10"></path><path d="M0 547L64 564L129 545L193 531L257 573L321 573L386 548L450 526L514 535L579 563L643 541L707 576L771 530L836 525L900 535L900 601L836 601L771 601L707 601L643 601L579 601L514 601L450 601L386 601L321 601L257 601L193 601L129 601L64 601L0 601Z" fill="#1af50a"></path></svg>